<svg width="86" height="86" viewBox="0 0 86 86" fill="none" xmlns="http://www.w3.org/2000/svg">
<path d="M50.2537 6.39526H55.5481C56.2438 6.39526 56.8079 6.95913 56.8079 7.65503C56.8079 8.35092 56.2438 8.9148 55.5481 8.9148H50.2537C49.558 8.9148 48.994 8.35092 48.994 7.65503C48.994 6.95913 49.5578 6.39526 50.2537 6.39526Z" fill="white"/>
<path d="M49.3851 74.1602H56.4169C58.1614 74.1602 59.5804 75.5792 59.5804 77.3237V78.2813C59.5804 80.0258 58.1611 81.445 56.4169 81.445H49.3851C47.6406 81.445 46.2216 80.0256 46.2216 78.2813V77.3237C46.2216 75.5792 47.6407 74.1602 49.3851 74.1602ZM48.7413 78.2813C48.7413 78.6303 49.036 78.9253 49.3851 78.9253H56.4169C56.766 78.9253 57.0607 78.6303 57.0607 78.2813V77.3237C57.0607 76.9746 56.766 76.6799 56.4169 76.6799H49.3851C49.036 76.6799 48.7413 76.9746 48.7413 77.3237V78.2813Z" fill="white"/>
<path d="M9.26341 42.2536H13.0793C13.3123 41.5144 13.6088 40.798 13.9664 40.111L11.2685 37.4131C10.9312 37.0758 10.7454 36.6273 10.7454 36.1503C10.7454 35.6735 10.9312 35.225 11.2683 34.888L14.4437 31.7124C15.1396 31.0172 16.2719 31.0175 16.9681 31.7127L19.6664 34.411C20.3534 34.0534 21.0696 33.7569 21.809 33.5241V29.708C21.809 28.7237 22.6099 27.9227 23.5943 27.9227H27.2799V21.2602C27.2799 20.5643 27.844 20.0005 28.5397 20.0005C29.2354 20.0005 29.8698 20.5643 29.8698 21.2602V29.2167V33.5241C30.6094 33.7571 31.3256 34.0534 32.0124 34.4112L32.7197 33.7037V14.9236C32.7197 13.6603 33.7475 12.6318 35.0117 12.6318C36.2395 12.6318 68.845 12.6318 70.7895 12.6318C72.0532 12.6318 73.0813 13.6598 73.0813 14.9236V69.8238C73.0813 71.0873 72.0533 72.1156 70.7895 72.1156H35.0117C33.7481 72.1156 32.7199 71.0876 32.7199 69.8238V58.8644L32.0126 58.1571C31.3256 58.515 30.6094 58.8115 29.87 59.0443C29.87 63.0935 29.894 63.023 29.7996 63.3517V63.3518V80.6866C29.7996 82.2272 31.0528 83.4804 32.5934 83.4804H49.9612C50.657 83.4804 51.221 84.0442 51.221 84.7401C51.221 85.436 50.657 85.9999 49.9612 85.9999H32.5936C29.6637 85.9999 27.2801 83.6163 27.2801 80.6864V64.6455H23.5945C22.6102 64.6455 21.8092 63.8445 21.8092 62.86V59.0441C21.0698 58.8111 20.3535 58.5148 19.6666 58.1571L16.9683 60.8553C16.2722 61.5512 15.1395 61.5512 14.4436 60.8553L11.2686 57.6804C10.9313 57.3431 10.7456 56.8948 10.7456 56.4178C10.7456 55.9407 10.9313 55.4924 11.2685 55.1553L13.9665 52.4572C13.6089 51.7702 13.3123 51.0542 13.0795 50.3146H9.26358C8.27928 50.3146 7.47824 49.5137 7.47824 48.5293V44.0388C7.47807 43.0547 8.27895 42.2536 9.26341 42.2536ZM63.1915 15.1519H35.2398V20.6211H63.1915V15.1519ZM70.5619 15.1519H65.7113V20.6211H70.5619V15.1519ZM70.5619 69.5959V23.1408C68.7002 23.1408 36.5639 23.1408 35.2399 23.1408V31.3476C35.8989 31.0513 36.703 31.1803 37.2358 31.7127L40.4109 34.8879C41.1147 35.5918 41.1017 36.7224 40.4109 37.4129L37.7128 40.111C37.8428 40.3606 37.9617 40.6153 38.0754 40.8724C38.2746 41.3227 38.4515 41.7828 38.5998 42.2535H42.4157C43.4 42.2535 44.2011 43.0542 44.2011 44.0388V45.0241H65.4574C66.1531 45.0241 66.7171 45.588 66.7171 46.2839C66.7171 46.9798 66.1531 47.5436 65.4574 47.5436H44.2011V48.5289C44.2011 49.5131 43.4005 50.3143 42.4157 50.3143H38.5998C38.3838 50.9999 38.0973 51.7182 37.7128 52.4567L40.4109 55.155C41.1069 55.8512 41.1069 56.9838 40.4109 57.6799L37.2358 60.855C36.7146 61.3759 35.9155 61.5232 35.2399 61.2203V69.5956H70.5619V69.5959ZM9.9976 47.7949H14.0394C14.6246 47.7949 15.1327 48.1979 15.2661 48.7676C15.5349 49.9159 15.9857 51.005 16.6063 52.0045C16.9151 52.5017 16.8408 53.1461 16.4269 53.5601L13.5693 56.4178L15.7059 58.5545L18.5637 55.6967C18.9777 55.2831 19.6217 55.2085 20.1192 55.5174C21.119 56.1381 22.2081 56.5891 23.3558 56.8577C23.9257 56.9909 24.3287 57.499 24.3287 58.0843V62.1262H27.3503V58.0843C27.3503 57.4991 27.7532 56.9909 28.3232 56.8577C29.4711 56.5891 30.5602 56.1383 31.5598 55.5174C32.0568 55.2087 32.7013 55.283 33.1153 55.6968L35.973 58.5547L38.1097 56.4179L35.252 53.5603C34.838 53.1462 34.7639 52.5016 35.0727 52.0044C35.6936 51.0045 36.1453 49.9112 36.4127 48.768C36.5459 48.198 37.0542 47.7951 37.6394 47.7951H41.6811V44.7735H37.6394C37.0542 44.7735 36.5461 44.3705 36.4127 43.8006C36.1549 42.6989 35.7035 41.5799 35.0727 40.564C34.9569 40.3776 34.8949 40.1705 34.8845 39.9625C34.8672 39.616 34.9934 39.2671 35.252 39.0086L37.1571 37.1034L38.1095 36.1508L35.973 34.0141L33.1153 36.8719C32.7016 37.2858 32.0571 37.3602 31.5598 37.0513C30.5603 36.4307 29.4714 35.9798 28.3232 35.7111C27.7532 35.5779 27.3503 35.0698 27.3503 34.4844V30.4426H24.3287V34.4841C24.3287 35.0693 23.9257 35.5774 23.3558 35.7107C22.2078 35.9793 21.1186 36.4301 20.1191 37.051C19.622 37.3595 18.9776 37.2853 18.5637 36.8716L15.7059 34.0138L13.5691 36.1505L16.4268 39.0083C16.8406 39.4222 16.9149 40.0665 16.6062 40.5639C15.9855 41.5634 15.5345 42.6526 15.2659 43.8008C15.1327 44.3705 14.6245 44.7735 14.0393 44.7735H9.9976V47.7949Z" fill="white"/>
<path d="M25.8396 39.5344C29.5613 39.5344 32.5892 42.5622 32.5892 46.2841C32.5892 50.0059 29.5614 53.0338 25.8396 53.0338C22.1179 53.0338 19.0901 50.0059 19.0901 46.2841C19.0899 42.5622 22.1179 39.5344 25.8396 39.5344ZM25.8396 50.514C28.172 50.514 30.0697 48.6163 30.0697 46.2839C30.0697 43.9515 28.1722 42.0538 25.8396 42.0538C23.5072 42.0538 21.6098 43.9515 21.6098 46.2839C21.6098 48.6163 23.5073 50.514 25.8396 50.514Z" fill="white"/>
<path d="M42.9415 31.3337H65.4575C66.1532 31.3337 66.7173 31.8976 66.7173 32.5935C66.7173 33.2894 66.1532 33.8533 65.4575 33.8533H42.9415C42.2458 33.8533 41.6817 33.2894 41.6817 32.5935C41.6816 31.8976 42.2458 31.3337 42.9415 31.3337Z" fill="white"/>
<path d="M42.9415 38.1792H65.4575C66.1532 38.1792 66.7173 38.7431 66.7173 39.439C66.7173 40.1349 66.1532 40.6987 65.4575 40.6987H42.9415C42.2458 40.6987 41.6817 40.1349 41.6817 39.439C41.6816 38.7431 42.2458 38.1792 42.9415 38.1792Z" fill="white"/>
<path d="M42.9415 51.8694H65.4575C66.1532 51.8694 66.7173 52.4333 66.7173 53.1292C66.7173 53.825 66.1532 54.3889 65.4575 54.3889H42.9415C42.2458 54.3889 41.6817 53.825 41.6817 53.1292C41.6817 52.4333 42.2458 51.8694 42.9415 51.8694Z" fill="white"/>
<path d="M42.9415 58.7144H65.4575C66.1532 58.7144 66.7173 59.2782 66.7173 59.9741C66.7173 60.67 66.1532 61.2339 65.4575 61.2339H42.9415C42.2458 61.2339 41.6817 60.67 41.6817 59.9741C41.6817 59.2782 42.2458 58.7144 42.9415 58.7144Z" fill="white"/>
<path d="M32.5935 0H73.2082C76.1381 0 78.5217 2.38364 78.5217 5.31352V80.6865C78.5217 83.6162 76.1381 86 73.2082 86H55.8406C55.1448 86 54.5808 85.4361 54.5808 84.7402C54.5808 84.0443 55.1448 83.4805 55.8407 83.4805H73.2082C74.7488 83.4805 76.002 82.2273 76.002 80.6866V5.31352C76.002 3.77291 74.7488 2.5197 73.2082 2.5197H32.5935C31.0529 2.5197 29.7997 3.77291 29.7997 5.31352V15.3809C29.7997 16.0768 29.2357 16.6407 28.5399 16.6407C27.8442 16.6407 27.2802 16.0768 27.2802 15.3809V5.31352C27.2802 2.38364 29.6638 0 32.5935 0Z" fill="white"/>
</svg>
