<svg width="97" height="97" viewBox="0 0 97 97" fill="none" xmlns="http://www.w3.org/2000/svg">
<path d="M27.2812 37.8906H24.25V40.9219H27.2812V37.8906Z" fill="white"/>
<path d="M42.4375 37.8906H39.4062V40.9219H42.4375V37.8906Z" fill="white"/>
<path d="M92.6684 54.5777L86.7469 53.7319C86.4653 52.9039 86.1327 52.094 85.7511 51.3069L89.3341 46.5297C89.5529 46.2378 89.6591 45.8768 89.6332 45.5129C89.6073 45.149 89.451 44.8067 89.1931 44.5488L82.7623 38.118C82.5152 37.8727 82.1905 37.721 81.8438 37.689V23.0996C83.2619 21.9643 84.4067 20.5248 85.1937 18.8876C85.9807 17.2503 86.3898 15.4572 86.3907 13.6406C86.4046 11.3437 85.7589 9.09097 84.5303 7.15015C83.3017 5.20932 81.5418 3.66192 79.4597 2.69175C79.2288 2.58268 78.974 2.53376 78.719 2.54952C78.4641 2.56529 78.2173 2.64523 78.0015 2.78192C77.7857 2.91862 77.608 3.10763 77.4848 3.3314C77.3616 3.55517 77.297 3.80644 77.297 4.06187V12.5494L74.2657 13.5603L71.2345 12.5494V4.06187C71.2334 3.80696 71.168 3.55643 71.0444 3.33348C70.9208 3.11052 70.743 2.92235 70.5274 2.78636C70.3117 2.65037 70.0653 2.57096 69.8109 2.55548C69.5564 2.54001 69.3022 2.58896 69.0717 2.69781C66.9905 3.66756 65.2313 5.21401 64.0028 7.15366C62.7743 9.0933 62.128 11.3447 62.1407 13.6406C62.1416 15.4572 62.5507 17.2503 63.3377 18.8876C64.1247 20.5248 65.2695 21.9643 66.6876 23.0996V33.3437H62.1407C61.776 33.3437 61.4235 33.4752 61.1479 33.714C60.8723 33.9529 60.692 34.2831 60.6402 34.6442L59.6596 41.5084L62.6606 41.9373L63.4548 36.375H69.9204L70.7146 41.9373C70.756 42.2255 70.8794 42.4957 71.0703 42.7155C71.2611 42.9354 71.5112 43.0956 71.7907 43.1771C73.0539 43.5421 74.2736 44.0437 75.4282 44.673C75.6836 44.8131 75.974 44.8766 76.2646 44.8559C76.5551 44.8352 76.8336 44.7312 77.0666 44.5563L81.5543 41.1917L86.1255 45.7628L82.7532 50.2505C82.5784 50.4835 82.4744 50.762 82.4537 51.0526C82.433 51.3431 82.4964 51.6335 82.6365 51.8889C83.2658 53.0435 83.7674 54.2632 84.1324 55.5264C84.2139 55.8059 84.3741 56.056 84.594 56.2469C84.8139 56.4377 85.084 56.5612 85.3722 56.6025L90.9345 57.3967V63.8624L85.3722 64.6566C85.084 64.6979 84.8139 64.8214 84.594 65.0122C84.3741 65.203 84.2139 65.4532 84.1324 65.7327C83.7674 66.9959 83.2658 68.2156 82.6365 69.3702C82.4964 69.6256 82.433 69.916 82.4537 70.2065C82.4744 70.4971 82.5784 70.7756 82.7532 71.0085L86.1179 75.4963L81.5468 80.0674L77.062 76.6906C76.829 76.5158 76.5506 76.4118 76.26 76.3911C75.9694 76.3704 75.6791 76.4339 75.4236 76.5739C74.2691 77.2032 73.0494 77.7048 71.7861 78.0698C71.5066 78.1513 71.2565 78.3116 71.0657 78.5314C70.8749 78.7513 70.7514 79.0214 70.7101 79.3096L69.9204 84.875H63.6563V78.4654C63.6553 76.8642 63.4256 75.2714 62.9743 73.7352C65.8612 74.5803 68.945 74.4596 71.757 73.3913C74.569 72.3231 76.9552 70.3658 78.5527 67.8171C80.1503 65.2683 80.8718 62.2676 80.6076 59.2712C80.3434 56.2748 79.1079 53.4467 77.089 51.2168C75.0701 48.987 72.3782 47.4774 69.4227 46.9177C66.4672 46.3581 63.4097 46.7789 60.7153 48.1161C58.0209 49.4534 55.8369 51.634 54.4954 54.3263C53.1539 57.0187 52.7283 60.0754 53.2834 63.0318C53.247 63.0167 53.2122 62.9985 53.1758 62.9848L40.922 58.0833V55.7538C42.9472 54.7176 44.7411 53.2811 46.1948 51.5312H50.0157C51.2216 51.5312 52.3781 51.0522 53.2308 50.1995C54.0835 49.3468 54.5626 48.1903 54.5626 46.9844V43.6742C55.4461 43.3619 56.2114 42.7842 56.754 42.0202C57.2966 41.2563 57.5899 40.3433 57.5938 39.4062V34.8594C57.5899 33.9223 57.2966 33.0094 56.754 32.2454C56.2114 31.4814 55.4461 30.9037 54.5626 30.5914V28.7969C54.5626 23.1693 52.327 17.7722 48.3478 13.793C44.3685 9.81366 38.9714 7.57812 33.3438 7.57812C27.7163 7.57812 22.3192 9.81366 18.3399 13.793C14.3606 17.7722 12.1251 23.1693 12.1251 28.7969V30.5914C11.2416 30.9037 10.4762 31.4814 9.93362 32.2454C9.39103 33.0094 9.09772 33.9223 9.09384 34.8594V39.4062C9.09384 40.6122 9.57288 41.7687 10.4256 42.6214C11.2783 43.4741 12.4348 43.9531 13.6407 43.9531H16.672C16.769 43.9531 16.8629 43.938 16.9584 43.9319C17.4244 46.4448 18.4607 48.8173 19.9876 50.8668C21.5145 52.9163 23.4912 54.5882 25.7657 55.7538V58.0833L13.5119 62.9848C10.4118 64.2134 7.75374 66.3475 5.88427 69.1089C4.01479 71.8702 3.02061 75.1308 3.03134 78.4654V92.4531C3.03134 92.8551 3.19102 93.2406 3.47525 93.5248C3.75949 93.8091 4.14499 93.9688 4.54696 93.9688H62.1407C62.5427 93.9688 62.9282 93.8091 63.2124 93.5248C63.4967 93.2406 63.6563 92.8551 63.6563 92.4531V87.9062H71.2345C71.5992 87.9063 71.9517 87.7748 72.2273 87.536C72.5029 87.2971 72.6831 86.9669 72.7349 86.6058L73.5806 80.6843C74.4087 80.4027 75.2186 80.0701 76.0056 79.6885L80.7829 83.2715C81.0748 83.4903 81.4358 83.5965 81.7997 83.5706C82.1635 83.5447 82.5059 83.3885 82.7638 83.1305L89.1946 76.6997C89.4526 76.4418 89.6088 76.0994 89.6347 75.7356C89.6606 75.3717 89.5544 75.0107 89.3356 74.7188L85.7526 69.9415C86.1342 69.1545 86.4668 68.3446 86.7484 67.5165L92.6699 66.6708C93.0304 66.6187 93.3601 66.4386 93.5986 66.1633C93.8372 65.8881 93.9686 65.5361 93.9688 65.1719V56.0781C93.9689 55.7134 93.8374 55.3609 93.5985 55.0853C93.3597 54.8097 93.0294 54.6294 92.6684 54.5777ZM75.9965 41.5615C75.9253 41.5266 75.845 41.5039 75.7738 41.4705V22.7344H72.7501V34.7533L72.7349 34.6442C72.6831 34.2831 72.5029 33.9529 72.2273 33.714C71.9517 33.4752 71.5992 33.3437 71.2345 33.3437H69.7188V22.3403C69.7188 22.0958 69.6597 21.855 69.5465 21.6383C69.4333 21.4216 69.2693 21.2356 69.0686 21.096C67.942 20.3116 67.0075 19.2823 66.3354 18.0853C65.6632 16.8883 65.2708 15.5546 65.1875 14.1844C65.1042 12.8141 65.3323 11.4427 65.8546 10.1731C66.3769 8.90355 67.1798 7.76869 68.2032 6.85366V13.6406C68.2031 13.9589 68.3032 14.269 68.4893 14.5272C68.6754 14.7853 68.938 14.9784 69.2399 15.079L73.7868 16.5946C74.0977 16.6981 74.4338 16.6981 74.7446 16.5946L79.2915 15.079C79.5934 14.9784 79.856 14.7853 80.0421 14.5272C80.2282 14.269 80.3283 13.9589 80.3282 13.6406V6.85366C81.3524 7.76867 82.1561 8.90379 82.6789 10.1738C83.2017 11.4439 83.4301 12.8158 83.3468 14.1867C83.2635 15.5576 82.8708 16.8919 82.1981 18.0893C81.5254 19.2867 80.5903 20.3162 79.4628 21.1005C79.2627 21.2397 79.0992 21.425 78.986 21.6409C78.8728 21.8567 78.8133 22.0966 78.8126 22.3403V39.4563L75.9965 41.5615ZM56.0782 60.625C56.0615 58.2552 56.8332 55.947 58.2717 54.0637C59.7103 52.1804 61.7342 50.8287 64.0249 50.2214C66.3157 49.6141 68.7433 49.7856 70.926 50.7089C73.1086 51.6322 74.9224 53.2549 76.0819 55.3218C77.2415 57.3886 77.681 59.7823 77.3313 62.1263C76.9817 64.4702 75.8627 66.6314 74.1504 68.2699C72.4381 69.9083 70.2298 70.9311 67.8727 71.1772C65.5156 71.4233 63.1436 70.8788 61.1298 69.6293C60.082 67.9509 58.7417 66.474 57.1725 65.2689C56.4514 63.8271 56.0767 62.237 56.0782 60.625ZM50.0157 48.5H48.1757C48.9143 47.0615 49.4378 45.5224 49.7293 43.9319C49.8247 43.9319 49.9187 43.9531 50.0157 43.9531H51.5313V46.9844C51.5313 47.3863 51.3717 47.7719 51.0874 48.0561C50.8032 48.3403 50.4177 48.5 50.0157 48.5ZM46.9845 31.8281C46.2789 31.8264 45.5833 31.6613 44.9522 31.3457C44.3211 31.0302 43.7717 30.5728 43.347 30.0094L40.6188 26.3719C40.497 26.2095 40.3438 26.0732 40.1684 25.9712C39.9929 25.8691 39.7987 25.8033 39.5973 25.7778C39.3959 25.753 39.1915 25.7685 38.9961 25.8234C38.8007 25.8783 38.6182 25.9715 38.4591 26.0975L33.3726 30.1609C32.0306 31.2349 30.3643 31.8226 28.6454 31.8281H19.7032V30.3125C19.7032 26.6948 21.1403 23.2252 23.6985 20.6671C26.2566 18.109 29.7261 16.6719 33.3438 16.6719C36.9616 16.6719 40.4311 18.109 42.9892 20.6671C45.5473 23.2252 46.9845 26.6948 46.9845 30.3125V31.8281ZM54.5626 39.4062C54.5626 39.8082 54.4029 40.1937 54.1187 40.478C53.8344 40.7622 53.4489 40.9219 53.047 40.9219H50.0157V33.3437H53.047C53.4489 33.3437 53.8344 33.5034 54.1187 33.7877C54.4029 34.0719 54.5626 34.4574 54.5626 34.8594V39.4062ZM33.3438 10.6094C38.1659 10.6146 42.7889 12.5324 46.1986 15.9421C49.6083 19.3518 51.5261 23.9748 51.5313 28.7969V30.3125H50.0157C50.0157 25.8908 48.2592 21.6503 45.1326 18.5237C42.006 15.3971 37.7655 13.6406 33.3438 13.6406C28.9222 13.6406 24.6816 15.3971 21.555 18.5237C18.4285 21.6503 16.672 25.8908 16.672 30.3125H15.1563V28.7969C15.1615 23.9748 17.0794 19.3518 20.4891 15.9421C23.8988 12.5324 28.5218 10.6146 33.3438 10.6094ZM13.6407 40.9219C13.2387 40.9219 12.8532 40.7622 12.569 40.478C12.2848 40.1937 12.1251 39.8082 12.1251 39.4062V34.8594C12.1251 34.4574 12.2848 34.0719 12.569 33.7877C12.8532 33.5034 13.2387 33.3437 13.6407 33.3437H16.672V40.9219H13.6407ZM19.7032 40.9219V34.8594H28.6454C31.0536 34.8562 33.3895 34.0366 35.2717 32.5344L39.1381 29.441L40.922 31.8281C41.6299 32.7671 42.5456 33.5295 43.5974 34.0554C44.6492 34.5813 45.8085 34.8564 46.9845 34.8594V40.9219C46.9869 43.6212 46.1837 46.2599 44.6777 48.5H33.3438V51.5312H41.898C39.8965 53.1496 37.4775 54.168 34.9211 54.4685C32.3647 54.769 29.7755 54.3393 27.4532 53.2293C25.131 52.1192 23.1705 50.3741 21.799 48.196C20.4274 46.0179 19.7008 43.4958 19.7032 40.9219ZM33.3438 57.5938C34.882 57.59 36.4123 57.3727 37.8907 56.9481V59.1094C37.8907 60.3153 37.4117 61.4718 36.559 62.3245C35.7063 63.1772 34.5497 63.6562 33.3438 63.6562C32.1379 63.6562 30.9814 63.1772 30.1287 62.3245C29.276 61.4718 28.797 60.3153 28.797 59.1094V56.9481C30.2754 57.3727 31.8056 57.59 33.3438 57.5938ZM60.6251 90.9375H51.5313V74.2656H48.5001V90.9375H18.1876V74.2656H15.1563V90.9375H6.06259V78.4654C6.05376 75.737 6.86721 73.0692 8.39686 70.8098C9.92652 68.5505 12.1014 66.8045 14.638 65.7993L26.1007 61.2146C26.5483 62.7906 27.4976 64.1775 28.8048 65.1651C30.1119 66.1528 31.7055 66.6871 33.3438 66.6871C34.9821 66.6871 36.5757 66.1528 37.8829 65.1651C39.19 64.1775 40.1394 62.7906 40.587 61.2146L52.0497 65.7993C54.5863 66.8045 56.7611 68.5505 58.2908 70.8098C59.8205 73.0692 60.6339 75.737 60.6251 78.4654V90.9375Z" fill="white"/>
<path d="M68.2031 39.4062H65.1719V42.4375H68.2031V39.4062Z" fill="white"/>
<path d="M68.2031 78.8125H65.1719V81.8438H68.2031V78.8125Z" fill="white"/>
<path d="M80.6183 72.4142L78.4749 74.5576L80.6183 76.701L82.7617 74.5576L80.6183 72.4142Z" fill="white"/>
<path d="M87.9062 59.1094H84.875V62.1406H87.9062V59.1094Z" fill="white"/>
<path d="M80.6191 44.5502L78.4757 46.6936L80.6191 48.837L82.7626 46.6936L80.6191 44.5502Z" fill="white"/>
</svg>
