<svg width="26" height="26" viewBox="0 0 26 26" fill="none" xmlns="http://www.w3.org/2000/svg">
<path d="M25.9127 7.54233C25.8982 6.46938 25.6955 5.4071 25.3135 4.403C24.9823 3.55605 24.4764 2.78686 23.8281 2.14459C23.1798 1.50232 22.4034 1.00109 21.5486 0.672917C20.5481 0.300839 19.4912 0.0996502 18.4227 0.0779168C17.0472 0.0170001 16.611 0 13.1192 0C9.62731 0 9.17975 8.9407e-08 7.81417 0.0779168C6.74625 0.0998099 5.68981 0.300996 4.6898 0.672917C3.83479 1.00086 3.05829 1.50201 2.40998 2.14431C1.76167 2.78661 1.25583 3.55592 0.924817 4.403C0.548507 5.39344 0.345876 6.44032 0.325681 7.49842C0.264194 8.86267 0.245605 9.29475 0.245605 12.7542C0.245605 16.2137 0.245605 16.6558 0.325681 18.0101C0.34713 19.0698 0.548748 20.1152 0.924817 21.1083C1.25638 21.9552 1.7626 22.7242 2.41113 23.3662C3.05965 24.0082 3.83623 24.5092 4.69123 24.837C5.6885 25.224 6.74513 25.4396 7.8156 25.4745C9.19262 25.5354 9.62874 25.5538 13.1206 25.5538C16.6125 25.5538 17.06 25.5538 18.4256 25.4745C19.494 25.4537 20.551 25.2529 21.5514 24.8809C22.4061 24.5524 23.1822 24.051 23.8305 23.4088C24.4787 22.7666 24.9848 21.9976 25.3164 21.1508C25.6925 20.1592 25.8941 19.1137 25.9155 18.0526C25.977 16.6898 25.9956 16.2577 25.9956 12.7968C25.9927 9.33725 25.9927 8.89808 25.9127 7.54233ZM13.1106 19.2964C9.45858 19.2964 6.50008 16.3653 6.50008 12.7472C6.50008 9.129 9.45858 6.19792 13.1106 6.19792C14.8638 6.19792 16.5452 6.88793 17.7849 8.11615C19.0247 9.34437 19.7211 11.0102 19.7211 12.7472C19.7211 14.4841 19.0247 16.15 17.7849 17.3782C16.5452 18.6064 14.8638 19.2964 13.1106 19.2964ZM19.9842 7.48283C19.1306 7.48283 18.4428 6.8 18.4428 5.95567C18.4428 5.75521 18.4826 5.55672 18.5601 5.37152C18.6375 5.18632 18.751 5.01804 18.894 4.8763C19.0371 4.73455 19.207 4.62211 19.3939 4.5454C19.5808 4.46869 19.7812 4.42921 19.9835 4.42921C20.1858 4.42921 20.3862 4.46869 20.5731 4.5454C20.7601 4.62211 20.9299 4.73455 21.073 4.8763C21.216 5.01804 21.3295 5.18632 21.407 5.37152C21.4844 5.55672 21.5242 5.75521 21.5242 5.95567C21.5242 6.8 20.835 7.48283 19.9842 7.48283Z" fill="white"/>
<path d="M13.1106 17.0014C15.4821 17.0014 17.4046 15.0967 17.4046 12.7472C17.4046 10.3976 15.4821 8.49293 13.1106 8.49293C10.7391 8.49293 8.81654 10.3976 8.81654 12.7472C8.81654 15.0967 10.7391 17.0014 13.1106 17.0014Z" fill="white"/>
</svg>
