<svg width="23" height="25" viewBox="0 0 23 25" fill="none" xmlns="http://www.w3.org/2000/svg">
<path d="M19.5931 21.2302H16.1913V15.6599C16.1913 14.3317 16.1647 12.6247 14.4124 12.6247C12.6385 12.6247 12.3682 14.0654 12.3682 15.5617V21.2294H8.96209V9.77617H12.2338V11.3384H12.2777C12.7348 10.4362 13.8467 9.48742 15.5056 9.48742C18.9563 9.48742 19.5967 11.8582 19.5967 14.9407V21.2294L19.5931 21.2302ZM5.11391 8.21092C4.85392 8.21102 4.59646 8.15759 4.35629 8.0537C4.11612 7.94982 3.89795 7.79751 3.71427 7.6055C3.5306 7.41349 3.38503 7.18556 3.28591 6.93476C3.18679 6.68395 3.13606 6.41521 3.13662 6.14392C3.13705 5.73558 3.2535 5.33654 3.47125 4.99726C3.68899 4.65798 3.99826 4.39369 4.35995 4.2378C4.72163 4.08191 5.11949 4.04143 5.50322 4.12148C5.88695 4.20152 6.23932 4.39849 6.51578 4.68749C6.79223 4.97649 6.98036 5.34454 7.05637 5.7451C7.13238 6.14566 7.09287 6.56074 6.94282 6.93787C6.79277 7.315 6.53893 7.63723 6.21339 7.86383C5.88785 8.09043 5.50523 8.21121 5.11391 8.21092ZM6.82022 21.2302H3.40687V9.77692H6.82022V21.2302ZM21.3009 0.776917H1.69625C0.759719 0.776917 0 1.55017 0 2.50717V23.0474C0 24.0044 0.759719 24.7777 1.69625 24.7777H21.2973C22.2324 24.7777 23 24.0044 23 23.0474V2.50717C23 1.55017 22.2324 0.776917 21.2973 0.776917H21.3009Z" fill="white"/>
</svg>
