<svg width="106" height="106" viewBox="0 0 106 106" fill="none" xmlns="http://www.w3.org/2000/svg">
<path d="M1.55273 76.5817C2.41046 76.5817 3.10547 75.8867 3.10547 75.029V31.9863H71.6328C72.4905 31.9863 73.1855 31.2913 73.1855 30.4336C73.1855 29.5759 72.4905 28.8809 71.6328 28.8809H3.10547V20.082C3.10547 16.3718 6.12378 13.3535 9.83398 13.3535H12.5894C13.4471 13.3535 14.1421 12.6585 14.1421 11.8008C14.1421 10.9431 13.4471 10.248 12.5894 10.248H9.83398C4.41163 10.248 0 14.6597 0 20.082V75.029C0 75.8867 0.695004 76.5817 1.55273 76.5817Z" fill="white"/>
<path d="M96.166 10.248H19.7692C18.9115 10.248 18.2165 10.9431 18.2165 11.8008C18.2165 12.6585 18.9115 13.3535 19.7692 13.3535H96.166C99.8762 13.3535 102.895 16.3718 102.895 20.082V28.8809H78.8789C78.0212 28.8809 77.3262 29.5759 77.3262 30.4336C77.3262 31.2913 78.0212 31.9863 78.8789 31.9863H102.895V85.918C102.895 89.6282 99.8762 92.6465 96.166 92.6465H9.83398C6.12378 92.6465 3.10547 89.6282 3.10547 85.918V82.4115C3.10547 81.5537 2.41046 80.8587 1.55273 80.8587C0.695004 80.8587 0 81.5537 0 82.4115V85.918C0 91.3403 4.41163 95.752 9.83398 95.752H96.166C101.588 95.752 106 91.3403 106 85.918V20.082C106 14.6597 101.588 10.248 96.166 10.248Z" fill="white"/>
<path d="M6.36621 21.0654C6.36621 23.6339 8.45598 25.7236 11.0244 25.7236C13.5928 25.7236 15.6826 23.6339 15.6826 21.0654C15.6826 18.497 13.5928 16.4072 11.0244 16.4072C8.45598 16.4072 6.36621 18.497 6.36621 21.0654ZM12.5771 21.0654C12.5771 21.9217 11.8807 22.6182 11.0244 22.6182C10.1681 22.6182 9.47168 21.9217 9.47168 21.0654C9.47168 20.2091 10.1681 19.5127 11.0244 19.5127C11.8807 19.5127 12.5771 20.2091 12.5771 21.0654Z" fill="white"/>
<path d="M28.9844 21.1172C28.9844 18.5488 26.8946 16.459 24.3262 16.459C21.7577 16.459 19.668 18.5488 19.668 21.1172C19.668 23.6856 21.7577 25.7754 24.3262 25.7754C26.8946 25.7754 28.9844 23.6856 28.9844 21.1172ZM22.7734 21.1172C22.7734 20.2609 23.4699 19.5645 24.3262 19.5645C25.1825 19.5645 25.8789 20.2609 25.8789 21.1172C25.8789 21.9735 25.1825 22.6699 24.3262 22.6699C23.4699 22.6699 22.7734 21.9735 22.7734 21.1172Z" fill="white"/>
<path d="M42.2344 21.1172C42.2344 18.5488 40.1446 16.459 37.5762 16.459C35.0077 16.459 32.918 18.5488 32.918 21.1172C32.918 23.6856 35.0077 25.7754 37.5762 25.7754C40.1446 25.7754 42.2344 23.6856 42.2344 21.1172ZM36.0234 21.1172C36.0234 20.2609 36.7199 19.5645 37.5762 19.5645C38.4325 19.5645 39.1289 20.2609 39.1289 21.1172C39.1289 21.9735 38.4325 22.6699 37.5762 22.6699C36.7199 22.6699 36.0234 21.9735 36.0234 21.1172Z" fill="white"/>
<path d="M95.1309 25.7754C97.6993 25.7754 99.7891 23.6856 99.7891 21.1172C99.7891 18.5488 97.6993 16.459 95.1309 16.459H51.0332C48.4648 16.459 46.375 18.5488 46.375 21.1172C46.375 23.6856 48.4648 25.7754 51.0332 25.7754H95.1309ZM49.4805 21.1172C49.4805 20.2609 50.1769 19.5645 51.0332 19.5645H95.1309C95.9871 19.5645 96.6836 20.2609 96.6836 21.1172C96.6836 21.9735 95.9871 22.6699 95.1309 22.6699H51.0332C50.1769 22.6699 49.4805 21.9735 49.4805 21.1172Z" fill="white"/>
<path d="M55.1801 45.3031L42.0149 75.4436C40.9547 77.871 42.0671 80.7086 44.4948 81.7694C46.8566 82.8462 49.8194 81.6837 50.82 79.2896L63.9851 49.1491C65.0453 46.7217 63.9329 43.8841 61.5051 42.8233C59.0772 41.7645 56.2401 42.8767 55.1801 45.3031ZM61.139 47.9061L47.9739 78.0464C47.6199 78.8927 46.5736 79.3051 45.7376 78.9231C44.8792 78.548 44.4859 77.5447 44.8608 76.6864L58.0259 46.5459C58.4008 45.6797 59.4242 45.2977 60.2623 45.6693C61.1208 46.0443 61.514 47.048 61.139 47.9061Z" fill="white"/>
<path d="M36.646 48.5762C35.7385 47.669 34.5322 47.1692 33.249 47.1692C31.9656 47.1692 30.7592 47.669 29.8518 48.5762L17.8218 60.6061C16.9146 61.5136 16.4149 62.7199 16.4149 64.0031C16.4149 65.2865 16.9146 66.4929 17.8218 67.4003L30.0143 79.5928C31.8027 81.4563 35.0203 81.4563 36.8085 79.5928C38.672 77.8044 38.6718 74.5868 36.8085 72.7986L28.013 64.0033L36.646 55.3705C38.5188 53.4971 38.5188 50.4496 36.646 48.5762ZM34.4498 53.1745L24.7189 62.9052C24.1175 63.4837 24.1177 64.523 24.7189 65.1012L34.6123 74.9946C35.2713 75.6265 35.2713 76.7647 34.6123 77.3968C33.9804 78.056 32.842 78.0558 32.2101 77.3968L20.0178 65.2043C19.3588 64.5725 19.3588 63.4342 20.0178 62.8021L32.0476 50.7722C32.6794 50.1132 33.8177 50.1132 34.4498 50.7719C35.1123 51.4342 35.1123 52.5125 34.4498 53.1745Z" fill="white"/>
<path d="M80.9608 70.2256C80.3544 70.8322 80.3544 71.8152 80.9608 72.4216C81.5674 73.0278 82.5503 73.0278 83.1567 72.4216L88.1781 67.4003C89.0853 66.4929 89.5851 65.2865 89.5851 64.0031C89.5851 62.7199 89.0853 61.5136 88.1781 60.6061L76.1483 48.5762C75.2409 47.669 74.0345 47.1692 72.7511 47.1692C71.468 47.1692 70.2616 47.669 69.3542 48.5764C67.4814 50.4496 67.4814 53.4973 69.3542 55.3705L77.9872 64.0031L69.1917 72.7984C68.2844 73.7058 67.7847 74.9122 67.7847 76.1956C67.7847 77.4788 68.2844 78.6851 69.1917 79.5926C70.0991 80.4998 71.3054 80.9995 72.5886 80.9995C73.8718 80.9995 75.0784 80.4998 75.9858 79.5926L77.9808 77.5976C78.5871 76.991 78.5871 76.008 77.9808 75.4016C77.3741 74.7954 76.3912 74.7954 75.7848 75.4016L73.7898 77.3966C73.158 78.0556 72.0197 78.0556 71.3876 77.3966C70.7284 76.7647 70.7287 75.6262 71.3876 74.9944L81.281 65.101C81.5721 64.8097 81.7357 64.4149 81.7357 64.0029C81.7357 63.5909 81.5721 63.1963 81.281 62.9048L71.5502 53.1743C70.8879 52.512 70.8879 51.434 71.5502 50.7719C72.182 50.1128 73.3205 50.113 73.9523 50.7719L85.9821 62.8019C86.303 63.1226 86.4796 63.5491 86.4796 64.0029C86.4796 64.4567 86.3028 64.8834 85.9821 65.2041L80.9608 70.2256Z" fill="white"/>
</svg>
